# xmcd
#
# Track frame offsets: 
#        150
#        19552
#        37885
#        64848
#        88282
#        104714
#        116873
#        148812
#        168214
#        193376
#
# Disc length: 2996 seconds
#
# Revision: 0
# Processed by: cddbd v1.5.2PL0 Copyright (c) Steve Scherf et al.
# Submitted via: ExactAudioCopy v1.0b4
#
DISCID=920bb20a
DTITLE=Bucky O'Hare - The Buddy Band Vol. One
DYEAR=2014
DGENRE=Slide Guitar Blues
TTITLE0=My Lady Switchblade
TTITLE1=Running Up Stream
TTITLE2=Don't Get In The Way
TTITLE3=Devil Blues
TTITLE4=Jimbo Collins
TTITLE5=Lemon Squeeze
TTITLE6=Hot Sun
TTITLE7=Cooling Board
TTITLE8=Same Thing
TTITLE9=Deepening The Journey
EXTD=
EXTT0=
EXTT1=
EXTT2=
EXTT3=
EXTT4=
EXTT5=
EXTT6=
EXTT7=
EXTT8=
EXTT9=
PLAYORDER=
